<?xml version="1.0" standalone="no"?>
<!DOCTYPE svg PUBLIC "-//W3C//DTD SVG 20010904//EN"
 "http://www.w3.org/TR/2001/REC-SVG-20010904/DTD/svg10.dtd">
<svg version="1.0" xmlns="http://www.w3.org/2000/svg"
 width="600.000000pt" height="600.000000pt" viewBox="0 0 600.000000 600.000000"
 preserveAspectRatio="xMidYMid meet">
<metadata>
Created by potrace 1.11, written by Peter Selinger 2001-2013
</metadata>
<g transform="translate(0.000000,600.000000) scale(0.100000,-0.100000)"
fill="#000000" stroke="none">
<path d="M3105 5294 c-69 -20 -127 -45 -148 -63 -21 -18 -35 -21 -102 -25 -28
-1 -57 -6 -65 -11 -9 -6 -11 -4 -5 5 5 9 4 11 -4 6 -6 -4 -24 -10 -39 -12 -15
-3 -38 -7 -52 -9 -32 -6 -101 -36 -118 -52 -7 -7 -21 -18 -31 -25 -22 -16 -51
-70 -51 -97 0 -11 -4 -22 -9 -25 -5 -3 -7 -16 -4 -27 6 -21 5 -21 -20 -4 -33
21 -146 26 -204 9 -24 -7 -43 -10 -43 -7 0 4 -5 2 -12 -5 -7 -7 -20 -12 -30
-12 -10 0 -18 -4 -18 -9 0 -5 -9 -12 -20 -16 -40 -13 -147 -136 -154 -177 -1
-7 -4 -17 -7 -23 -4 -5 -6 -23 -5 -39 2 -24 -5 -31 -41 -49 -24 -12 -43 -25
-43 -29 0 -4 -4 -8 -10 -8 -19 0 -86 -55 -133 -109 -72 -84 -131 -195 -153
-283 -2 -10 -7 -28 -10 -40 -15 -59 -19 -116 -19 -278 0 -188 4 -220 36 -290
12 -25 28 -61 37 -80 9 -19 21 -38 26 -42 6 -4 7 -8 3 -8 -5 0 -2 -7 7 -15 21
-21 31 -84 18 -106 -16 -25 -8 -27 70 -24 64 3 67 2 73 -22 8 -33 3 -38 -40
-42 -14 -1 -42 -26 -77 -70 -10 -11 -15 -21 -13 -21 3 0 1 -9 -5 -20 -16 -31
-21 -122 -7 -139 10 -12 9 -13 -2 -6 -11 6 -12 5 -5 -6 8 -14 11 -22 18 -64 2
-11 6 -27 9 -35 3 -8 13 -40 22 -70 10 -30 21 -59 25 -64 5 -5 6 -15 3 -22 -3
-8 -1 -20 4 -27 6 -6 10 -62 11 -124 0 -63 6 -127 13 -147 11 -30 38 -51 62
-47 4 1 7 -3 7 -8 0 -12 84 5 88 18 5 14 28 -9 29 -29 2 -32 39 -215 56 -275
7 -25 47 -93 61 -104 9 -8 16 -18 16 -23 0 -5 9 -17 19 -26 14 -12 20 -34 23
-75 5 -60 -2 -74 -39 -80 -12 -2 -28 -9 -37 -16 -9 -7 -16 -10 -16 -7 0 4 -6
2 -12 -3 -7 -6 -40 -32 -73 -59 -33 -27 -69 -61 -80 -76 -11 -16 -25 -33 -30
-40 -19 -20 -102 -162 -110 -187 -4 -13 -11 -26 -14 -29 -10 -7 -56 -124 -53
-133 1 -5 -11 1 -27 12 -16 12 -35 21 -43 21 -7 0 -26 21 -42 46 -25 40 -32
44 -56 39 -20 -4 -29 -2 -33 9 -4 9 -2 16 4 16 6 0 7 5 4 10 -3 5 -1 10 4 10
6 0 11 3 10 8 -3 19 14 51 25 45 6 -3 8 -3 4 1 -3 4 -2 22 4 39 5 18 10 40 10
50 -1 9 3 17 7 17 4 0 6 13 3 30 -3 21 0 30 9 30 11 0 11 2 -1 10 -11 7 -11
10 -2 10 7 0 10 5 7 10 -4 6 -11 7 -17 4 -7 -5 -8 -2 -3 7 11 16 13 89 3 83
-4 -2 -9 0 -12 5 -4 5 -2 13 4 16 7 4 7 12 2 18 -4 7 -14 32 -21 57 -7 25 -17
53 -23 64 -6 12 -6 16 1 11 21 -12 11 12 -14 33 -14 12 -25 27 -25 33 0 5 -5
7 -11 4 -5 -4 -18 0 -27 8 -9 9 -24 17 -32 19 -8 2 -18 7 -21 12 -4 4 -21 9
-38 10 -17 0 -31 4 -31 7 0 4 -7 10 -16 13 -22 8 -67 -21 -58 -37 4 -7 3 -9
-1 -4 -10 9 -45 -21 -45 -40 0 -7 -5 -12 -11 -10 -6 1 -14 -4 -17 -12 -3 -9 0
-11 8 -6 9 5 11 4 6 -4 -4 -6 -12 -9 -17 -6 -5 4 -12 -2 -16 -12 -9 -27 -111
-120 -125 -115 -5 1 -7 -1 -5 -6 1 -4 -1 -8 -6 -9 -4 -2 -17 -12 -29 -23 -12
-11 -26 -20 -32 -20 -5 0 -6 -3 -3 -7 4 -3 -2 -12 -12 -20 -26 -17 -22 -95 6
-120 10 -10 12 -14 3 -9 -8 5 -2 -3 13 -18 16 -14 22 -26 15 -27 -7 0 -3 -4
10 -9 12 -5 22 -17 22 -25 0 -9 4 -13 10 -10 5 3 10 2 10 -3 0 -5 20 -30 44
-55 24 -25 42 -48 40 -50 -2 -2 7 -10 21 -17 14 -7 25 -17 25 -22 0 -4 7 -8
16 -8 8 0 12 -4 9 -10 -3 -5 -2 -10 3 -10 14 0 38 -41 46 -78 6 -25 4 -32 -8
-32 -19 0 -38 -33 -27 -46 12 -12 22 -89 14 -98 -22 -22 -18 -136 8 -203 5
-13 7 -23 5 -23 -3 0 11 -44 30 -97 19 -54 36 -102 38 -108 5 -16 24 -62 52
-122 59 -131 162 -188 356 -199 57 -3 104 -7 106 -9 3 -3 -21 -81 -35 -115 -3
-8 -7 -18 -8 -22 -2 -5 -3 -9 -5 -10 -1 -2 -4 -19 -6 -38 -4 -26 -2 -31 6 -20
9 13 10 13 10 0 0 -13 1 -13 10 0 5 8 10 11 10 5 0 -6 34 -10 83 -10 45 0 89
-3 98 -7 9 -4 21 -2 27 4 7 7 12 8 12 3 0 -6 33 -11 73 -12 205 -4 246 -7 240
-16 -4 -6 -1 -7 8 -1 23 14 62 17 53 3 -5 -8 -3 -9 7 -4 19 12 49 14 55 3 3
-5 12 -4 20 3 11 9 14 9 14 -1 0 -10 3 -10 15 0 12 10 15 10 15 -1 0 -12 2
-12 9 0 6 10 10 10 16 1 6 -9 10 -9 16 1 7 11 9 11 9 1 0 -9 5 -10 18 -3 11 6
24 6 35 0 12 -7 17 -6 17 2 0 9 3 9 14 0 10 -8 16 -9 21 -1 3 6 12 7 18 3 19
-11 127 -10 127 1 0 8 3 8 8 1 8 -12 390 -14 409 -2 6 4 14 4 17 -1 6 -10 76
-9 92 1 6 3 14 3 18 0 11 -11 36 -12 36 -1 0 7 5 7 13 -1 10 -7 17 -7 24 0 8
8 13 8 17 0 5 -8 13 -8 28 0 16 8 19 8 13 -1 -6 -9 -2 -9 14 -1 16 9 21 9 21
0 0 -8 4 -8 15 1 12 10 15 10 15 -1 0 -9 3 -10 8 -4 8 12 22 13 40 2 7 -5 12
-4 12 2 0 13 22 10 32 -4 5 -7 8 -6 8 0 0 10 82 15 282 18 37 1 55 4 50 11 -4
8 -1 8 9 1 16 -12 39 -13 57 -2 7 5 12 3 12 -4 0 -7 5 -8 13 -3 6 5 58 9 114
9 57 0 103 3 103 6 0 3 11 5 25 4 32 -4 40 9 27 43 -6 15 -13 36 -18 47 -4 11
-8 26 -10 33 -1 8 -6 21 -10 30 -4 9 -8 20 -9 25 -2 4 -3 8 -5 10 -1 1 -3 10
-5 20 -3 15 6 17 63 18 168 2 256 35 328 122 19 22 64 107 58 107 -4 0 -1 6 5
13 6 8 12 22 14 33 2 10 11 36 20 58 9 21 14 42 11 47 -3 5 -1 9 4 9 11 0 39
93 44 148 1 12 5 22 8 22 13 0 9 123 -5 150 -13 24 -13 34 -1 74 15 48 8 67
-26 78 -10 4 -9 9 3 21 9 9 19 13 23 10 3 -4 6 -1 6 5 0 7 7 12 17 12 9 0 14
3 10 6 -8 8 18 34 33 34 6 0 8 4 5 10 -3 5 -2 10 4 10 5 0 21 19 35 42 14 24
26 39 27 33 0 -5 5 -1 10 10 5 11 18 34 29 50 11 17 23 38 26 48 4 9 10 17 15
17 5 0 9 7 9 15 0 8 5 15 11 15 6 0 9 7 5 15 -3 8 -1 15 4 15 27 0 48 118 23
127 -7 3 -11 9 -8 14 7 10 -30 31 -39 22 -3 -3 -6 1 -6 10 0 10 -6 14 -14 11
-8 -3 -20 4 -28 15 -8 12 -17 19 -20 16 -3 -3 -11 1 -18 10 -7 8 -19 15 -26
15 -8 0 -14 5 -14 11 0 5 -4 8 -9 4 -5 -3 -17 5 -25 17 -9 12 -16 19 -16 15 0
-3 -21 14 -47 39 -27 25 -47 50 -46 55 2 4 -4 6 -12 3 -8 -4 -15 -1 -15 5 0 6
-7 11 -16 11 -8 0 -12 5 -9 10 3 6 -3 10 -14 10 -11 0 -23 5 -26 10 -9 14 -28
1 -21 -15 3 -9 -4 -12 -24 -11 -16 1 -28 0 -27 -3 1 -4 -3 -8 -8 -10 -18 -8
-33 -26 -29 -33 3 -4 -5 -5 -16 -3 -15 3 -20 -1 -20 -16 0 -12 -4 -17 -11 -14
-5 4 -18 -2 -28 -14 -10 -11 -20 -19 -22 -17 -2 3 -4 -14 -5 -37 0 -23 -5 -51
-9 -61 -6 -15 -5 -17 5 -11 10 6 11 4 4 -6 -8 -13 -10 -24 -17 -89 -1 -14 -6
-31 -11 -39 -6 -9 -5 -12 1 -8 7 5 11 -11 10 -44 0 -31 5 -54 12 -59 9 -5 9
-10 3 -14 -12 -7 14 -66 29 -66 6 0 7 -4 4 -10 -3 -5 1 -21 10 -34 24 -36 16
-62 -17 -58 -20 3 -30 -4 -48 -33 -13 -20 -32 -40 -44 -44 -17 -7 -23 -3 -35
23 -8 17 -15 36 -15 41 -5 30 -103 214 -153 285 -25 35 -153 155 -153 143 0
-2 -12 5 -26 16 -15 11 -30 18 -35 15 -5 -3 -9 -1 -9 4 0 5 -14 12 -31 16 -28
5 -31 8 -24 33 4 16 11 46 15 69 3 22 20 58 37 80 17 21 41 58 53 81 21 41 72
258 74 315 1 28 14 30 55 8 8 -4 28 -4 44 1 16 5 33 6 37 4 12 -8 51 41 56 70
3 16 7 32 10 37 3 4 -1 8 -8 8 -10 0 -10 2 0 9 8 4 13 11 12 14 -1 4 -5 20
-10 37 -5 16 -5 30 -2 30 4 0 8 24 8 53 2 61 5 78 38 175 14 39 22 72 19 72
-3 0 -1 6 4 13 5 6 10 26 12 42 2 17 6 35 11 40 9 12 7 86 -3 102 -4 6 -3 14
3 18 6 4 2 18 -12 38 -12 17 -16 27 -7 22 8 -5 5 1 -5 13 -11 12 -15 22 -10
22 5 1 -3 8 -18 16 -16 8 -28 19 -28 25 0 6 -4 7 -10 4 -5 -3 -10 -2 -10 3 0
6 -7 9 -16 8 -20 -1 -27 14 -16 31 6 10 27 7 93 -11 46 -14 98 -26 114 -27 17
-2 36 -7 43 -12 21 -16 14 19 -18 81 -35 70 -37 86 -10 115 11 11 28 38 37 59
9 21 20 38 25 38 4 0 7 3 6 8 -1 4 4 21 11 37 53 129 57 355 10 515 -23 75
-71 194 -124 304 -30 63 -55 117 -55 120 0 3 7 3 15 0 8 -4 15 -1 15 5 0 6 7
8 15 5 8 -4 15 -1 15 5 0 6 6 11 14 11 17 0 106 84 106 100 0 7 -30 9 -89 7
-50 -2 -96 0 -103 4 -7 5 -16 3 -20 -4 -5 -8 -8 -8 -8 -1 0 6 -11 10 -25 9
-14 -2 -25 1 -25 6 0 6 -4 8 -9 5 -11 -7 -71 25 -71 37 0 5 -4 6 -8 3 -11 -6
-61 41 -127 120 -90 106 -224 233 -290 274 -19 12 -35 26 -35 31 0 6 -4 8 -9
5 -5 -4 -11 -3 -13 2 -7 17 -176 106 -233 124 -167 50 -294 60 -390 32z"/>
</g>
</svg>
